<svg xmlns="http://www.w3.org/2000/svg" xmlns:xlink="http://www.w3.org/1999/xlink" aria-hidden="true" role="img" class="iconify iconify--logos" width="31.88" height="32" preserveAspectRatio="xMidYMid meet" viewBox="0 0 256 257"><defs><linearGradient id="IconifyId1813088fe1fbc01fb466" x1="-.828%" x2="57.636%" y1="7.652%" y2="78.411%"><stop offset="0%" stop-color="#FF00DC"></stop><stop offset="100%" stop-color="#FF5E00"></stop></linearGradient><linearGradient id="IconifyId1813088fe1fbc01fb467" x1="43.376%" x2="50.316%" y1="2.242%" y2="89.03%"><stop offset="0%" stop-color="#FFEA00"></stop><stop offset="8.333%" stop-color="#FFEA00"></stop><stop offset="100%" stop-color="#FF00DC"></stop></linearGradient></defs><path fill="url(#IconifyId1813088fe1fbc01fb466)" d="M128.001 0C57.317 0 0 57.307 0 128c0 70.696 57.307 128 128.001 128C198.697 256 256 198.696 256 128.001C256 57.314 198.686 0 128.001 0Zm.001 239.038c-61.066 0-111.038-50.017-111.038-111.037c0-61.066 50.015-111.038 111.038-111.038c61.047 0 111.037 50.019 111.037 111.038c0 61.02-50.01 111.037-111.037 111.037Z"></path><path fill="url(#IconifyId1813088fe1fbc01fb467)" d="M128.104 86.002c-23.383 0-42.58 19.167-42.58 42.581c0 23.403 19.197 42.584 42.58 42.584c23.405 0 42.583-19.181 42.583-42.584c0-23.414-19.178-42.581-42.583-42.581Z"></path></svg>
